<?xml version="1.0" encoding="UTF-8"?>
<svg id="Layer_1" data-name="Layer 1" xmlns="http://www.w3.org/2000/svg" viewBox="0 0 567.69 283.46">
  <defs>
    <style>
      .cls-1 {
        fill: #16639e;
      }

      .cls-2 {
        fill: #131718;
      }

      .cls-3 {
        fill: #e6e7e7;
      }

      .cls-4 {
        fill: #fff;
      }

      .cls-5 {
        fill: none;
      }

      .cls-6 {
        fill: #a21c3e;
      }
    </style>
  </defs>
  <g>
    <g>
      <polygon class="cls-3" points="434.5 54.56 161 54.56 149.27 109.12 423.34 109.12 434.5 54.56"/>
      <path class="cls-2" d="M172.38,97.9c-.34,1.58-1.27,2.37-2.78,2.37-1.51,0-2.1-.8-1.75-2.38l6.29-29.12c.18-.83.5-1.46.98-1.91.47-.45,1.05-.67,1.74-.67l10.31.03c4.61.02,7.8.67,9.59,1.97,1.79,1.3,2.38,3.37,1.76,6.23-.63,2.93-2.01,5.14-4.14,6.65-2.13,1.51-4.9,2.26-8.32,2.25l-10.53-.03-3.16,14.61ZM184.41,78.98c3.63.01,6.04-.27,7.21-.85,1.16-.51,1.92-1.63,2.29-3.35.25-1.17.21-2.05-.13-2.64-.34-.59-1.08-.99-2.22-1.22-1.14-.23-2.91-.34-5.33-.35l-7.94-.03-1.82,8.42,7.93.03Z"/>
      <path class="cls-2" d="M228.13,87.91c-.55,2.55-1.6,4.77-3.15,6.68-1.55,1.91-3.48,3.37-5.81,4.4-2.33,1.02-4.9,1.53-7.7,1.52-2.81,0-5.15-.53-7.03-1.57-1.88-1.04-3.18-2.52-3.9-4.43-.72-1.91-.81-4.14-.26-6.69l1.96-9.09c.55-2.55,1.6-4.77,3.15-6.68,1.55-1.91,3.48-3.37,5.81-4.4,2.33-1.03,4.9-1.53,7.7-1.52,2.81,0,5.15.53,7.03,1.57,1.88,1.04,3.18,2.52,3.9,4.43.72,1.91.81,4.15.26,6.69l-1.96,9.09ZM217.96,70.46c-3.06-.01-5.55.7-7.46,2.15-1.91,1.44-3.17,3.54-3.76,6.29l-1.9,8.78c-.59,2.75-.25,4.86,1.04,6.31,1.29,1.45,3.46,2.18,6.52,2.19,3.06,0,5.54-.71,7.46-2.15,1.91-1.44,3.17-3.54,3.76-6.29l1.9-8.78c.57-2.65.25-4.75-.96-6.31-1.31-1.45-3.51-2.18-6.6-2.19"/>
      <path class="cls-2" d="M246.11,100.16c-3.53-.01-6.22-.33-8.08-.96-1.86-.63-3.09-1.65-3.69-3.06-.59-1.41-.62-3.36-.09-5.84l2.99-13.84c.53-2.44,1.37-4.37,2.52-5.78,1.15-1.41,2.74-2.43,4.77-3.06,2.03-.63,4.64-.94,7.85-.93l8.58.03c2.12,0,3.59.53,4.39,1.56.8,1.04.97,2.64.5,4.81-.42,1.93-1.38,2.89-2.89,2.88-.72,0-1.23-.24-1.52-.73-.29-.48-.35-1.15-.16-2.02.19-.86.17-1.44-.06-1.73-.23-.29-.75-.44-1.58-.44l-8.21-.03c-2.48,0-4.33.12-5.54.4-1.21.27-2.12.79-2.71,1.57-.6.77-1.08,1.97-1.42,3.59l-2.94,13.63c-.36,1.65-.39,2.86-.11,3.62.29.76,1.05,1.28,2.28,1.56,1.24.28,3.26.42,6.07.43l7.23.03c.83,0,1.42-.14,1.77-.43.35-.29.62-.87.81-1.73.19-.86.53-1.53,1.03-2.01.5-.48,1.11-.72,1.83-.72,1.5.04,2.05,1.02,1.63,2.95-.46,2.13-1.32,3.72-2.56,4.75-1.25,1.03-2.94,1.54-5.06,1.54l-7.61-.03Z"/>
      <path class="cls-2" d="M280.18,100.27c-3.53-.01-6.22-.33-8.08-.96-1.86-.63-3.09-1.65-3.69-3.06-.59-1.41-.62-3.36-.09-5.84l2.99-13.84c.53-2.44,1.37-4.37,2.52-5.78,1.15-1.41,2.74-2.43,4.76-3.06,2.03-.63,4.64-.94,7.85-.93l8.58.03c2.12,0,3.59.53,4.39,1.56.8,1.04.97,2.64.5,4.81-.42,1.93-1.38,2.89-2.89,2.88-.72,0-1.23-.24-1.52-.73-.29-.48-.35-1.15-.16-2.02.19-.86.17-1.44-.06-1.73-.23-.29-.75-.44-1.58-.44l-8.21-.03c-2.48,0-4.33.12-5.54.4-1.21.27-2.12.79-2.72,1.57-.6.77-1.08,1.97-1.42,3.59l-2.94,13.63c-.36,1.65-.39,2.86-.11,3.62.29.76,1.05,1.28,2.28,1.56,1.24.28,3.26.42,6.06.43l7.23.02c.83,0,1.42-.14,1.77-.43.35-.29.62-.87.81-1.73.18-.86.53-1.53,1.03-2.01.5-.48,1.11-.72,1.83-.72,1.5.04,2.05,1.02,1.63,2.95-.46,2.13-1.32,3.72-2.56,4.75-1.25,1.03-2.94,1.54-5.06,1.54l-7.61-.03Z"/>
      <path class="cls-2" d="M301.42,98.22l6.3-29.17c.36-1.69,1.3-2.53,2.81-2.52,1.51,0,2.07.9,1.69,2.69l-5.13,23.75,24.27-25.08c.87-.86,1.74-1.29,2.6-1.28,1.44,0,1.98.85,1.61,2.54l-6.3,29.18c-.36,1.65-1.29,2.47-2.8,2.47-1.51,0-2.1-.78-1.76-2.33l5.2-24.06-24.01,24.88c-.56.58-1.02.97-1.39,1.16-.36.19-.83.28-1.41.28-1.48,0-2.03-.83-1.68-2.49"/>
      <path class="cls-2" d="M358.62,98.51l2.73-12.65-7.61-.03c-1.65,0-2.94.26-3.87.79-.93.53-1.71,1.43-2.34,2.7l-2.39,4.8c-1.05,2.03-2.4,3.65-4.05,4.87-1.65,1.22-3.34,1.82-5.07,1.82-1.87,0-2.65-.73-2.34-2.18.31-1.41,1.39-2.11,3.26-2.11.65,0,1.33-.3,2.03-.9.7-.6,1.22-1.21,1.53-1.83l2.65-5.26c.84-1.58,1.94-2.9,3.29-3.97-3.3-1.56-4.53-4.29-3.69-8.18.65-3.03,2.29-5.35,4.91-6.96,2.62-1.61,6.03-2.41,10.24-2.4l9.93.03c1.44,0,1.97.88,1.59,2.64l-6.22,28.81c-.34,1.58-1.25,2.37-2.73,2.37-1.58,0-2.2-.8-1.86-2.38M364.47,71.4l-7.5-.02c-2.95,0-5.19.4-6.72,1.22-1.53.82-2.49,2.15-2.88,3.97-.71,3.27,1.76,4.91,7.42,4.93l7.5.02,2.18-10.12Z"/>
      <g>
        <path d="M196.98,67.89c-1.87-1.36-5.08-2.03-9.81-2.04l-10.31-.03h0c-.78,0-1.44.26-1.99.77-.53.5-.9,1.21-1.09,2.1l-6.29,29.12c-.2.93-.1,1.65.29,2.14.37.46.99.7,1.83.7h.01c1.67,0,2.76-.92,3.13-2.66l3.09-14.32,10.22.03c3.48,0,6.35-.77,8.54-2.32,2.2-1.56,3.64-3.87,4.29-6.88.65-3,0-5.23-1.91-6.61ZM193.54,74.69c-.35,1.61-1.03,2.62-2.09,3.1-1.11.55-3.48.84-7.04.81l-7.47-.02,1.66-7.67,7.63.02c2.38,0,4.15.12,5.25.35,1.02.21,1.69.56,1.97,1.04.29.5.32,1.3.09,2.37Z"/>
        <path d="M226.11,67.37c-1.93-1.07-4.36-1.61-7.21-1.62-2.85,0-5.49.51-7.85,1.56-2.37,1.04-4.38,2.56-5.95,4.51-1.58,1.94-2.66,4.25-3.22,6.84l-1.96,9.09c-.56,2.61-.47,4.93.27,6.9.75,1.99,2.12,3.55,4.07,4.63,1.93,1.07,4.36,1.61,7.21,1.62h.08c2.82,0,5.43-.52,7.78-1.56,2.37-1.05,4.37-2.56,5.95-4.51,1.58-1.94,2.66-4.25,3.22-6.84l1.96-9.09c.56-2.61.47-4.93-.27-6.9-.75-1.99-2.12-3.55-4.07-4.63ZM225.15,78.88l-1.9,8.78c-.57,2.65-1.79,4.69-3.62,6.07-1.84,1.38-4.28,2.12-7.23,2.07-2.94-.01-5.04-.71-6.24-2.07-1.2-1.35-1.52-3.36-.96-5.98l1.9-8.78c.57-2.65,1.79-4.69,3.62-6.07,1.83-1.37,4.24-2.07,7.17-2.07h.06c2.97,0,5.1.7,6.31,2.05,1.13,1.46,1.43,3.47.89,6Z"/>
        <path d="M260.96,66.35l-8.58-.03c-3.23,0-5.9.31-7.96.95-2.09.65-3.75,1.72-4.95,3.18-1.18,1.45-2.06,3.45-2.59,5.94l-2.99,13.84c-.55,2.54-.51,4.58.11,6.06.64,1.51,1.95,2.61,3.92,3.27,1.9.64,4.65.96,8.2.98l7.61.03h.04c2.19,0,3.96-.54,5.26-1.62,1.31-1.08,2.22-2.75,2.69-4.96.26-1.22.17-2.1-.29-2.68-.36-.46-.93-.7-1.71-.72h-.01c-.81,0-1.51.28-2.08.82-.55.53-.93,1.27-1.14,2.2-.21.96-.48,1.36-.68,1.52-.27.23-.8.35-1.51.35h-.02l-7.23-.02c-2.76,0-4.77-.15-5.98-.42-1.1-.25-1.78-.69-2.02-1.32-.26-.69-.22-1.83.12-3.41l2.94-13.63c.34-1.56.79-2.71,1.35-3.44.54-.7,1.38-1.18,2.5-1.43,1.18-.27,3-.41,5.46-.39l8.21.03c.95,0,1.21.21,1.28.3.07.09.21.41-.01,1.42-.21.96-.14,1.73.21,2.29.36.6.98.91,1.84.91h.02c1.7,0,2.79-1.07,3.24-3.18.49-2.27.3-3.99-.57-5.12-.88-1.13-2.45-1.7-4.68-1.71Z"/>
        <path d="M295.02,66.46l-8.58-.03c-3.23.02-5.91.31-7.96.95-2.09.65-3.75,1.72-4.94,3.18-1.18,1.45-2.06,3.45-2.59,5.94l-2.99,13.84c-.55,2.54-.51,4.58.11,6.06.63,1.51,1.95,2.61,3.92,3.27,1.89.64,4.65.96,8.2.98l7.61.03h.04c2.19,0,3.96-.55,5.26-1.62,1.31-1.08,2.22-2.75,2.69-4.96.26-1.22.17-2.1-.29-2.68-.36-.46-.93-.71-1.71-.73h0c-.81,0-1.52.28-2.08.82-.55.53-.94,1.27-1.13,2.2-.21.96-.48,1.36-.68,1.52-.28.23-.83.33-1.53.35l-7.23-.02c-2.77,0-4.78-.15-5.98-.42-1.1-.25-1.78-.69-2.02-1.32-.26-.69-.22-1.83.12-3.41l2.94-13.63c.33-1.55.79-2.71,1.35-3.44.54-.7,1.38-1.18,2.5-1.43,1.18-.26,3.02-.39,5.46-.39l8.21.03c.95,0,1.22.21,1.28.29.07.09.21.41-.01,1.43-.21.96-.14,1.73.2,2.29.36.6.98.91,1.84.91h.01c1.7,0,2.79-1.07,3.25-3.18.49-2.27.3-3.99-.57-5.12-.88-1.13-2.45-1.7-4.68-1.71Z"/>
        <path d="M335.66,66.89c-.35-.44-.92-.67-1.69-.67h0c-.96,0-1.92.47-2.86,1.4l-23.36,24.14,4.85-22.47c.24-1.11.14-1.91-.29-2.45-.37-.46-.96-.69-1.76-.69h-.01c-1.17,0-2.67.49-3.17,2.82l-6.3,29.17c-.21.99-.12,1.75.29,2.26.36.45.95.68,1.76.68.64-.03,1.17-.11,1.58-.32.41-.21.9-.61,1.48-1.23l23.1-23.93-4.92,22.78c-.2.91-.1,1.61.29,2.09.37.46.99.7,1.84.7h.01c1.67,0,2.77-.96,3.16-2.77l6.3-29.18c.23-1.04.13-1.8-.28-2.32Z"/>
        <path d="M367.84,66.7l-9.93-.03h-.09c-4.22,0-7.7.83-10.35,2.45-2.69,1.66-4.4,4.08-5.08,7.2-.83,3.85.3,6.65,3.38,8.33-1.18,1.03-2.17,2.27-2.95,3.72l-2.65,5.26c-.29.57-.77,1.15-1.44,1.71-.63.54-1.23.81-1.79.81-2.57,0-3.39,1.3-3.63,2.4-.16.75-.06,1.36.3,1.81.44.55,1.23.82,2.4.82h.04c1.79,0,3.56-.64,5.25-1.89,1.69-1.24,3.08-2.93,4.16-5l2.39-4.8c.6-1.2,1.33-2.05,2.19-2.55.86-.49,2.08-.74,3.65-.74h.03l7.15.03-2.63,12.2c-.2.91-.1,1.62.29,2.11.38.48,1.04.72,1.93.73h.01c1.64,0,2.71-.92,3.08-2.66l6.22-28.81c.24-1.1.14-1.9-.28-2.43-.35-.44-.92-.66-1.67-.67ZM350.43,72.93c1.45-.78,3.61-1.17,6.43-1.17h.11l7.04.02-2.02,9.37-7.2-.02c-3.41-.01-5.63-.62-6.59-1.82-.55-.68-.7-1.55-.46-2.66.37-1.73,1.25-2.94,2.69-3.72Z"/>
        <path d="M415.46,84.82h0c-.33-.4-.87-.6-1.59-.61l-20.03-.06c-.13,0-.24.01-.31.02l-9.62-.02c-.63,0-1.23.18-1.71.54-.48.36-.8.89-.94,1.56-.14.67-.04,1.22.3,1.64.34.42.87.63,1.56.64l29.96.06h.01c.69,0,1.27-.18,1.73-.54.46-.36.77-.89.91-1.56.15-.7.06-1.26-.27-1.66Z"/>
      </g>
      <polygon class="cls-1" points="196.94 114.77 185.09 169.88 410 169.88 421.85 114.77 196.94 114.77"/>
      <g>
        <path class="cls-4" d="M231.27,126.99l-8.58-.03c-3.24,0-5.91.31-7.97.95-2.1.65-3.77,1.73-4.96,3.19-1.19,1.45-2.06,3.45-2.6,5.95l-2.99,13.84c-.55,2.55-.51,4.6.11,6.08.64,1.52,1.96,2.62,3.93,3.29,1.9.64,4.66.97,8.21.98l7.61.02s.08,0,.12,0c2.15-.01,3.9-.56,5.2-1.63,1.31-1.08,2.22-2.76,2.7-4.97.27-1.23.17-2.11-.3-2.7-.37-.47-.95-.72-1.73-.74-.01,0-.02,0-.03,0-.81,0-1.51.28-2.08.83-.56.53-.94,1.28-1.14,2.22-.21.95-.48,1.34-.67,1.5-.27.22-.81.34-1.51.34l-7.23-.02c-2.77,0-4.78-.15-5.98-.42-1.09-.25-1.76-.69-1.99-1.31-.26-.68-.22-1.82.12-3.39l2.94-13.63c.33-1.55.79-2.7,1.35-3.43.53-.69,1.37-1.17,2.48-1.42,1.18-.26,3-.39,5.45-.39l8.2.03c.97,0,1.21.22,1.26.29.05.07.21.37-.02,1.4-.21.96-.14,1.74.21,2.31.37.61.99.92,1.86.93.01,0,.02,0,.03,0,1.18,0,2.69-.57,3.26-3.2.49-2.28.3-4.01-.58-5.14-.88-1.13-2.46-1.71-4.71-1.72Z"/>
        <path class="cls-4" d="M267.09,129.77c.17-.78.07-1.41-.3-1.87-.43-.53-1.17-.8-2.27-.8l-20.57-.07c-.91-.01-1.69.22-2.31.66-.64.46-1.04,1.07-1.2,1.82-.17.79-.01,1.45.46,1.94.46.48,1.17.72,2.11.73l7.27.02-5.75,26.62c-.19.88-.07,1.59.35,2.1.42.51,1.1.77,2.01.77.01,0,.03,0,.04,0,.86,0,1.62-.26,2.26-.75.66-.5,1.08-1.15,1.25-1.94l5.79-26.79,7.34.02s.04,0,.06,0c2.41-.01,3.21-1.35,3.45-2.48Z"/>
        <path class="cls-4" d="M296.79,135.6c.65-3.02,0-5.25-1.92-6.64-1.88-1.36-5.09-2.03-9.83-2.05l-10.31-.03c-.74,0-1.47.26-2.02.78-.53.5-.9,1.21-1.1,2.12l-6.29,29.12c-.2.94-.1,1.67.29,2.16.38.47,1,.71,1.86.71.01,0,.03,0,.04,0,1.67,0,2.76-.94,3.14-2.69l3.09-14.29,10.2.03c3.44.02,6.37-.77,8.55-2.32,2.2-1.56,3.65-3.88,4.3-6.9ZM291.38,135.78c-.35,1.6-1.02,2.61-2.08,3.08-1.1.55-3.46.83-7.03.81l-7.44-.02,1.64-7.61,7.61.02c2.38,0,4.14.13,5.25.35,1.02.2,1.67.55,1.95,1.03.29.49.32,1.28.09,2.34Z"/>
        <path class="cls-4" d="M318.9,127.6l-.06-.32-5.42-.02-19.76,31.31c-.2.37-.36.84-.48,1.4-.13.61.04,1.19.5,1.66.45.46,1.04.69,1.76.69,0,0,.02,0,.03,0,1.17,0,2.17-.62,2.99-1.84l5.42-8.73,14.02.05,1.62,8.61c.23,1.3,1.05,1.99,2.36,1.99.01,0,.02,0,.03,0,.68,0,1.33-.22,1.92-.64.61-.44.99-.95,1.11-1.53.12-.56.16-1.03.12-1.45l-6.17-31.18ZM316.85,146.65l-9.67-.03,7.25-11.39,2.42,11.42Z"/>
        <path class="cls-4" d="M364.24,127.77c-.38-.47-.99-.71-1.82-.71-.01,0-.02,0-.03,0-1.18,0-2.67.51-3.18,2.84l-2.33,10.78-17.96-.06,2.29-10.61c.22-1,.11-1.77-.31-2.29-.39-.49-1.04-.73-1.92-.74,0,0-.02,0-.03,0-1.13,0-2.57.51-3.07,2.84l-6.3,29.17c-.22.99-.12,1.76.29,2.27.38.47.99.71,1.83.71.01,0,.03,0,.04,0,1.68,0,2.77-.97,3.16-2.79l2.9-13.42,17.96.06-2.86,13.25c-.21.99-.12,1.76.29,2.27.38.47.99.71,1.83.71.01,0,.02,0,.04,0,1.68,0,2.77-.97,3.16-2.79l6.3-29.18c.22-1.02.12-1.8-.29-2.32Z"/>
        <path class="cls-4" d="M394.28,159.01l-6.18-31.18-.06-.32-5.41-.02-19.76,31.31c-.2.38-.36.85-.48,1.39-.13.61.04,1.19.5,1.66.44.46,1.04.69,1.76.69,1.19,0,2.19-.61,3.02-1.84l5.43-8.73,14.02.05,1.62,8.61c.23,1.3,1.05,1.99,2.36,2,0,0,.01,0,.02,0,.69,0,1.34-.22,1.93-.64.62-.43.99-.95,1.11-1.53.12-.57.16-1.03.12-1.46ZM386.05,146.88l-9.67-.03,7.25-11.39,2.42,11.42Z"/>
      </g>
    </g>
    <polygon class="cls-6" points="66.29 174.34 54.56 228.9 501.41 228.9 513.13 174.34 66.29 174.34"/>
    <g>
      <path class="cls-4" d="M100.11,185.15c-1.83-.6-4.39-.91-7.63-.92l-10.15-.03s-.02,0-.02,0c-.78,0-1.45.26-1.99.78-.53.5-.9,1.21-1.1,2.12l-6.11,28.3c-.2.93-.13,1.68.21,2.21.36.57.96.87,1.79.87l11.77.04c.17,0,.34,0,.51,0,3.28-.02,5.98-.33,8.04-.92,2.2-.63,3.95-1.69,5.2-3.16,1.24-1.45,2.15-3.47,2.7-6.01l.21-.98c.87-4.04.16-6.95-2.11-8.66,1.42-1.33,2.39-3.14,2.88-5.4.46-2.15.36-3.91-.31-5.25-.67-1.35-1.98-2.36-3.88-2.98ZM87.81,213.36l-8.89-.03,2.37-10.97,10.04.03c2.4,0,4.15.15,5.21.42.96.25,1.54.66,1.77,1.28.24.67.2,1.78-.13,3.31l-.18.83c-.33,1.54-.8,2.67-1.38,3.36-.56.66-1.48,1.13-2.72,1.38-1.3.26-3.35.39-6.08.39ZM95.13,196.91c-1.24.23-3.07.34-5.45.34l-7.27-.02,1.64-7.61,7.45.02c2.37,0,4.15.13,5.29.37,1.06.22,1.74.57,2.04,1.04.3.48.34,1.25.11,2.31-.23,1.08-.63,1.9-1.18,2.42-.55.53-1.43.9-2.63,1.13Z"/>
      <path class="cls-4" d="M135.12,185.51c-1.93-1.07-4.37-1.61-7.23-1.62-2.85.01-5.5.52-7.87,1.56-2.38,1.05-4.38,2.57-5.96,4.52-1.58,1.95-2.67,4.25-3.23,6.85l-1.96,9.09c-.56,2.61-.47,4.94.27,6.92.75,2,2.13,3.56,4.09,4.64,1.93,1.07,4.36,1.61,7.23,1.62.06,0,.13,0,.19,0,2.78-.01,5.36-.54,7.68-1.56,2.37-1.05,4.38-2.57,5.96-4.52,1.58-1.95,2.66-4.25,3.23-6.85l1.96-9.09c.57-2.61.47-4.94-.27-6.92-.75-2-2.13-3.56-4.09-4.64ZM134.12,197.04l-1.9,8.78c-.57,2.64-1.79,4.68-3.61,6.06-1.83,1.38-4.26,2.04-7.21,2.06-2.93,0-5.02-.7-6.22-2.06-1.19-1.34-1.51-3.34-.95-5.95l1.9-8.78c.57-2.64,1.79-4.68,3.61-6.05,1.8-1.35,4.17-2.05,7.05-2.06.05,0,.11,0,.16,0,2.96,0,5.08.7,6.29,2.03,1.13,1.45,1.43,3.46.88,5.97Z"/>
      <path class="cls-4" d="M170.05,185.67c-1.54-.79-3.44-1.19-5.66-1.2l-10.63-.04c-2.39.04-4.25.59-5.5,1.77-1.23,1.17-2.17,3.19-2.78,6.01-.24,1.09-.14,1.88.3,2.42.37.47.98.7,1.79.71.01,0,.02,0,.03,0,1.18,0,2.68-.53,3.2-2.95l.2-.93c.22-1.04.48-1.43.66-1.58.17-.14.55-.32,1.53-.31l9.88.03c1.87,0,3.32.45,4.31,1.33.96.86,1.29,1.94.99,3.31-.28,1.28-1.03,2.28-2.31,3.06-1.3.79-2.89,1.18-4.87,1.19h-4.64s-.04-.01-.06-.01c-2.54.01-3.37,1.35-3.61,2.48-.16.76-.06,1.38.3,1.83.45.56,1.24.83,2.43.84h4.64c1.83.02,3.23.47,4.17,1.34.92.86,1.22,1.94.92,3.32-.32,1.49-1.19,2.72-2.65,3.75-1.43,1.01-3.08,1.53-4.9,1.54-.03,0-.05,0-.08,0l-9.88-.03c-1.04,0-1.26-.22-1.29-.26-.03-.04-.19-.32.06-1.48l.2-.93c.24-1.09.14-1.88-.3-2.42-.37-.47-.98-.7-1.79-.71-1.14.03-2.71.5-3.23,2.95-.62,2.89-.56,4.89.2,6.11.77,1.24,2.4,1.88,4.84,1.88l10.63.04s.09,0,.13,0c2.09-.01,4.09-.43,5.94-1.25,1.9-.84,3.51-2.03,4.8-3.53,1.29-1.5,2.15-3.22,2.56-5.1.66-3.04.12-5.6-1.6-7.61,2.54-1.78,4.15-4.18,4.79-7.16.4-1.87.28-3.55-.38-5-.66-1.46-1.79-2.61-3.35-3.41Z"/>
      <path class="cls-4" d="M209.55,184.25s-.01,0-.02,0c-.93,0-1.87.48-2.82,1.41l-12.55,12.99-6.83-12.91c-.53-1.04-1.33-1.57-2.39-1.57-.01,0-.02,0-.03,0-1.13,0-2.56.51-3.07,2.84l-6.3,29.17c-.21.99-.11,1.76.3,2.27.38.47.99.71,1.83.71,1.21.04,2.71-.5,3.23-2.95l4.96-22.96,5.32,10.3c.48.58,1.13.88,1.94.88,0,0,.02,0,.02,0,.73,0,1.44-.27,2.11-.8l9.68-10.17-4.89,22.66c-.24,1.09-.14,1.88.3,2.42.38.47.98.7,1.79.71.01,0,.03,0,.04,0,1.67,0,2.77-.97,3.16-2.79l6.3-29.17c.22-1.03.12-1.81-.29-2.33-.37-.46-.96-.69-1.77-.69Z"/>
      <path class="cls-4" d="M244.37,190.49c-.75-2-2.13-3.56-4.09-4.64-1.93-1.07-4.36-1.61-7.23-1.62-2.85.02-5.5.52-7.87,1.56-2.38,1.05-4.39,2.57-5.96,4.52-1.58,1.95-2.66,4.25-3.23,6.85l-1.96,9.09c-.57,2.61-.47,4.94.27,6.92.75,2,2.13,3.56,4.09,4.64,1.93,1.07,4.36,1.62,7.23,1.63.06,0,.12,0,.18,0,2.78-.01,5.37-.54,7.69-1.56,2.38-1.05,4.38-2.57,5.96-4.52,1.58-1.95,2.67-4.25,3.23-6.85l1.96-9.09c.57-2.61.47-4.94-.27-6.92ZM239.28,197.38l-1.9,8.78c-.57,2.64-1.78,4.68-3.61,6.05-1.83,1.38-4.25,2.06-7.21,2.07-2.93,0-5.02-.7-6.22-2.05-1.19-1.34-1.51-3.35-.95-5.95l1.9-8.78c.57-2.64,1.79-4.68,3.61-6.05,1.8-1.36,4.17-2.05,7.06-2.06.05,0,.1,0,.15,0,2.96,0,5.08.7,6.29,2.04,1.13,1.45,1.43,3.46.88,5.97Z"/>
      <path class="cls-4" d="M291.9,188.68c.17-.8,0-1.46-.53-1.96-.5-.47-1.24-.71-2.2-.71-1.42-.01-3.02.53-4.72,1.6-1.41.94-2.72,2.05-3.9,3.3-1.17,1.24-2.57,2.84-4.17,4.75-1.43,1.67-2.52,2.88-3.24,3.58-.88.86-1.37,1.14-1.61,1.23l2.47-11.45c.21-1,.11-1.77-.31-2.29-.39-.48-1.04-.73-1.92-.74-.84-.03-1.53.25-2.13.76-.6.5-.99,1.2-1.19,2.08l-2.52,11.66c-.32,0-.7-.42-1.08-1.21-.49-.8-1.03-1.99-1.62-3.56-.66-1.63-1.28-3.08-1.84-4.32-.84-1.77-1.88-3.15-3.1-4.08-1.24-.95-2.62-1.44-4.11-1.44-.02,0-.04,0-.06,0-2.36.01-3.15,1.32-3.39,2.43-.22,1.04.15,1.65.5,1.98.48.45,1.2.7,2.13.74.63.06,1.21.6,1.72,1.59.6,1.19,1.31,2.89,2.13,5.03.66,1.81,1.27,3.16,1.85,4.12-1.58.7-3.06,1.74-4.43,3.09-1.49,1.47-2.61,2.98-3.35,4.49-.44.91-1.09,2.12-1.98,3.7-.22.41-.44.72-.66.93-.25.24-.37.25-.37.25-.02,0-.05,0-.07,0-2.53.01-3.35,1.35-3.6,2.48-.22,1,.17,1.61.53,1.95.49.47,1.23.71,2.2.71.02,0,.04,0,.06,0,1.67,0,3.23-.48,4.63-1.4,1.41-.92,2.6-2.23,3.57-3.91.93-1.73,1.68-3.09,2.22-4.02.79-1.44,1.81-2.55,3.04-3.3,1.18-.73,2.52-1.1,3.97-1.12l-2.36,10.92c-.18.8-.07,1.48.32,2.02.4.56,1.01.84,1.83.85,0,0,.02,0,.03,0,.8,0,1.52-.26,2.15-.75.64-.5,1.05-1.15,1.22-1.93l2.4-11.09h.05c1.61,0,2.84.4,3.63,1.17.56.64.95,1.38,1.16,2.19.22.86.43,2.07.63,3.55,0,.32.05.79.13,1.43.16,1.71.78,3.07,1.82,4.04,1.05.97,2.45,1.46,4.17,1.46.02,0,.05,0,.07,0,2.63-.01,3.47-1.35,3.71-2.48.17-.79-.03-1.47-.57-1.96-.51-.46-1.24-.7-2.16-.7-.13,0-.24-.2-.3-.37-.14-.36-.2-.91-.18-1.67-.03-1.88-.35-3.81-.96-5.73-.28-1.02-.81-1.98-1.59-2.85-.65-.73-1.4-1.33-2.24-1.8,1.02-1.01,2.23-2.38,3.61-4.08,1.72-2.18,3.17-3.85,4.3-4.97,1-1.09,1.88-1.67,2.6-1.72.98-.03,1.78-.26,2.4-.68.64-.44,1.04-1.04,1.21-1.8Z"/>
      <path class="cls-4" d="M323.94,184.63s-.02,0-.03,0c-1.18,0-2.67.51-3.18,2.84l-2.33,10.78-17.96-.06,2.29-10.61c.22-1,.11-1.77-.3-2.29-.39-.49-1.04-.74-1.92-.74-1.13-.02-2.59.49-3.1,2.84l-6.3,29.17c-.21.99-.12,1.76.29,2.27.38.47.99.71,1.83.71.01,0,.02,0,.03,0,1.68,0,2.77-.97,3.16-2.79l2.9-13.41,17.96.06-2.86,13.25c-.21.99-.11,1.76.3,2.27.38.47.99.71,1.83.71.01,0,.02,0,.04,0,1.68,0,2.77-.97,3.16-2.79l6.3-29.17c.22-1.02.12-1.8-.29-2.32-.38-.47-.99-.71-1.82-.71Z"/>
      <path class="cls-4" d="M354.72,186.22c-1.94-1.07-4.37-1.62-7.23-1.62-2.84.03-5.5.52-7.87,1.56-2.37,1.04-4.38,2.56-5.96,4.51-1.58,1.95-2.67,4.25-3.23,6.85l-1.96,9.09c-.56,2.62-.47,4.94.28,6.92.75,2,2.12,3.56,4.09,4.64,1.94,1.07,4.37,1.62,7.23,1.62.06,0,.13,0,.19,0,2.78-.01,5.36-.54,7.67-1.56,2.38-1.05,4.39-2.57,5.96-4.52,1.58-1.95,2.67-4.26,3.23-6.85l1.96-9.09c.56-2.61.47-4.94-.27-6.92-.75-2-2.13-3.56-4.09-4.64ZM353.72,197.75l-1.9,8.78c-.57,2.64-1.78,4.68-3.61,6.06-1.83,1.38-4.28,2.05-7.21,2.07-2.92,0-5.02-.7-6.22-2.06-1.19-1.34-1.51-3.35-.95-5.96l1.9-8.78c.57-2.64,1.79-4.68,3.61-6.05,1.8-1.35,4.17-2.05,7.05-2.06.05,0,.11,0,.16,0,2.96,0,5.08.7,6.29,2.03,1.13,1.45,1.43,3.46.88,5.97Z"/>
      <path class="cls-4" d="M389.55,185.2l-8.58-.03c-3.23-.02-5.9.31-7.96.95-2.09.65-3.76,1.72-4.96,3.19-1.18,1.45-2.06,3.46-2.6,5.95l-2.99,13.84c-.55,2.55-.51,4.6.11,6.08.64,1.52,1.96,2.62,3.93,3.28,1.9.64,4.66.97,8.21.98l7.61.02s.08,0,.12,0c2.15-.01,3.9-.56,5.19-1.63,1.31-1.08,2.22-2.76,2.7-4.97.27-1.23.17-2.11-.29-2.7-.37-.47-.95-.72-1.73-.74-.78.03-1.53.28-2.11.83-.56.54-.94,1.28-1.14,2.22-.21.95-.48,1.34-.67,1.5-.27.23-.81.33-1.51.34l-7.24-.02c-2.77-.01-4.78-.15-5.98-.42-1.09-.25-1.76-.69-1.99-1.31-.26-.68-.21-1.82.12-3.39l2.94-13.63c.34-1.56.79-2.71,1.35-3.42.55-.7,1.36-1.17,2.48-1.42,1.18-.26,3.02-.39,5.45-.39l8.21.03c.96,0,1.2.22,1.26.29.05.07.21.37-.02,1.4-.21.96-.14,1.74.21,2.31.37.61.99.92,1.86.93,0,0,.02,0,.03,0,1.18,0,2.69-.57,3.26-3.21.49-2.28.3-4.01-.58-5.14-.88-1.13-2.46-1.71-4.71-1.72Z"/>
      <path class="cls-4" d="M425.38,187.98c.17-.78.07-1.41-.3-1.87-.43-.53-1.17-.8-2.27-.8l-20.57-.07c-.9.02-1.69.22-2.31.66-.64.45-1.04,1.06-1.2,1.82-.21.99.14,1.6.47,1.94.46.48,1.16.72,2.11.73l7.27.02-5.75,26.62c-.19.88-.07,1.59.35,2.1.42.51,1.1.77,2.01.77h.02c.87,0,1.64-.26,2.29-.75.65-.5,1.07-1.15,1.25-1.94l5.79-26.79,7.34.02s.04,0,.06,0c2.41-.01,3.21-1.35,3.45-2.48Z"/>
      <path class="cls-4" d="M458.11,186.11c-.46-.46-1.19-.69-2.16-.69l-23-.07s-.02,0-.03,0c-.77,0-1.44.27-1.99.78-.53.5-.9,1.22-1.1,2.12l-6.11,28.29c-.21.95-.14,1.67.21,2.21.36.57.96.87,1.79.86l23,.08s.04,0,.06,0c.91,0,1.68-.21,2.28-.6.64-.42,1.04-1.02,1.2-1.77.19-.9.04-1.6-.45-2.08-.47-.46-1.17-.69-2.16-.69l-20.12-.07,2.48-11.48,13.66.04c2.21-.03,3.53-.79,3.87-2.38.2-.91.01-1.62-.55-2.1-.51-.44-1.31-.67-2.38-.67l-13.48-.05,1.59-7.35,20.3.07c.92,0,1.73-.2,2.34-.6.64-.42,1.04-1.02,1.2-1.77.19-.9.04-1.6-.44-2.08Z"/>
      <path class="cls-4" d="M488.74,178.97c-.52,2.28-1.27,3.9-2.24,4.81-.97.91-2.45,1.37-4.41,1.37l-6.37-.02c-1.93,0-3.18-.45-3.72-1.32-.56-.91-.6-2.56-.1-4.89h3.49s-.11.58-.11.58c-.21.95-.19,1.5.05,1.83.25.34.77.49,1.75.49l5.51.02c.89,0,1.42-.12,1.75-.41.31-.26.55-.8.74-1.69l.15-.76h3.51Z"/>
      <path class="cls-4" d="M488.74,178.97c-.52,2.28-1.27,3.9-2.24,4.81-.97.91-2.45,1.37-4.41,1.37l-6.37-.02c-1.93,0-3.18-.45-3.72-1.32-.56-.91-.6-2.56-.1-4.89h3.49s-.11.58-.11.58c-.21.95-.19,1.5.05,1.83.25.34.77.49,1.75.49l5.51.02c.89,0,1.42-.12,1.75-.41.31-.26.55-.8.74-1.69l.15-.76h3.51Z"/>
      <path class="cls-4" d="M492.62,185.85c-.36-.45-.94-.68-1.72-.68,0,0-.02,0-.03,0-.96,0-1.92.48-2.86,1.41l-23.29,24.07,4.83-22.37c.24-1.12.14-1.93-.3-2.48-.38-.47-.98-.7-1.78-.71-.01,0-.03,0-.04,0-1.17,0-2.66.51-3.17,2.84l-6.3,29.17c-.22,1-.12,1.77.29,2.28.37.46.97.69,1.78.69.02,0,.04,0,.06,0,.61,0,1.13-.11,1.54-.32.41-.21.9-.62,1.49-1.24l23.03-23.86-4.9,22.67c-.2.91-.1,1.63.29,2.11.38.47,1,.71,1.87.71.01,0,.02,0,.04,0,1.68,0,2.77-.97,3.16-2.79l6.3-29.17c.23-1.04.13-1.83-.29-2.35Z"/>
    </g>
  </g>
  <rect class="cls-5" width="567.69" height="283.46"/>
</svg>