<?xml version="1.0" encoding="UTF-8"?>
<svg id="_Слой_1" data-name="Слой_1" xmlns="http://www.w3.org/2000/svg" version="1.1" viewBox="0 0 239.89 50.72">
  <!-- Generator: Adobe Illustrator 29.0.1, SVG Export Plug-In . SVG Version: 2.1.0 Build 192)  -->
  <defs>
    <style>
      .st0 {
        fill: #e4032e;
        fill-rule: evenodd;
      }
    </style>
  </defs>
  <path class="st0" d="M104.73,0v17.33h17.89V0h9.68v44.46h-9.68v-17.74h-17.89v17.74h-9.68V0h9.68ZM84.64,0v8.95h-25.02v8.38h21.3v9.39l-21.3-.15v8.65h25.02v9.24s-34.7,0-34.7,0V0h34.7ZM178.11,0v8.95h-25.02v8.38h21.3v9.39l-21.3-.15v8.65h25.02v9.24s-34.7,0-34.7,0V0h34.7ZM38.39,0H0v44.46h14.33v7.72h9.68v-7.72h14.37v-17.24h-9.68v7.72H9.68V9.24h19.02v7.72h9.68V0h0ZM233.2,21.72l6.73,22.74h-10.21l-5.48-17.74h-6.06v17.74s-9.68,0-9.68,0v-17.74h-6.04l-5.49,17.74h-10.21l6.73-22.74-6.64-21.72h10.14l5.37,17.33h6.12V0h9.68v17.33s6.14,0,6.14,0l5.37-17.33h10.13l-6.64,21.72h0Z"/>
</svg>