<?xml version="1.0" encoding="UTF-8"?>
<svg id="_Слой_1" data-name="Слой_1" xmlns="http://www.w3.org/2000/svg" version="1.1" viewBox="0 0 239.89 68.37">
  <!-- Generator: Adobe Illustrator 29.0.1, SVG Export Plug-In . SVG Version: 2.1.0 Build 192)  -->
  <defs>
    <style>
      .st0 {
        fill: #1d1d1b;
      }

      .st1 {
        fill: #e4032e;
        fill-rule: evenodd;
      }
    </style>
  </defs>
  <path class="st0" d="M235.03,3.81c-.33,0-.62-.02-.86-.07-.63-.11-1.11-.42-1.11-1.15,0-1.18,1.13-1.21,1.98-1.21h3.03v2.44h-3.04ZM2.01,7.79V2.3l-.03-.72h.03l2.9,6.21h1.32l2.9-6.21h.03l-.03.72v5.48h1.73V0h-2.52l-2.7,5.78L2.96,0H.28v7.79h1.73ZM17.01,4.59l1.67-3.34,1.68,3.34h-3.35ZM13.58,7.79h1.89l.94-1.89h4.55l.94,1.89h1.98l-3.92-7.79h-2.46l-3.91,7.79h0ZM30.94,7.97c1.16,0,2.5-.18,3.48-.88.73-.53,1.13-1.26,1.14-2.2h-1.83c0,.55-.29.94-.74,1.21-.58.35-1.34.47-2,.47-.83,0-1.85-.13-2.51-.73-.95-.87-1.03-2.99-.04-3.88.65-.6,1.64-.73,2.47-.73.69,0,1.46.11,2.06.51.43.28.7.62.7,1.17h1.84c0-.91-.43-1.62-1.12-2.14-.98-.74-2.33-.95-3.5-.95-1.3,0-2.77.23-3.82,1.1-1.73,1.42-1.71,4.53,0,5.95,1.05.87,2.56,1.1,3.86,1.1h0ZM41.25,7.79h1.86V1.41h3.5V0h-8.86v1.41h3.5v6.37h0ZM49.39,7.79h8.03v-1.41h-6.23v-1.97h5.4v-1.18h-5.4v-1.81h6.1V0h-7.9v7.79h0ZM62.36,3.84V1.32h2.7c.8,0,1.85.11,1.85,1.2,0,1.2-.98,1.31-1.88,1.31h-2.67ZM60.52,7.79h1.84v-2.63h2.96c1.69,0,3.5-.46,3.5-2.6s-1.71-2.56-3.39-2.56h-4.91v7.79h0ZM76.52,7.97c1.45,0,3.56-.32,4.32-1.84.24-.48.24-.73.3-1.24h-1.84c0,.27-.05.48-.2.71-.5.78-1.71.97-2.53.97s-1.85-.13-2.51-.73c-.76-.7-.9-2.08-.57-3.07.24-.74.83-1.13,1.51-1.35.4-.13.9-.19,1.5-.19.69,0,1.46.11,2.06.51.43.28.7.62.7,1.17h1.84c0-.91-.43-1.62-1.12-2.14-.98-.74-2.33-.95-3.5-.95-.85,0-1.6.1-2.23.29-1.09.33-2.06.95-2.54,2.08-.65,1.54-.33,3.62.96,4.68,1.05.87,2.56,1.1,3.86,1.1h0ZM86.13,4.43h1.37l3.44,3.36h2.46l-4.4-4.18,4.26-3.61h-2.36l-3.53,3.07h-1.24V0h-1.86v7.79h1.86v-3.36h0ZM98.81,4.59l1.67-3.34,1.68,3.34h-3.35ZM95.39,7.79h1.89l.94-1.89h4.55l.94,1.89h1.98l-3.92-7.79h-2.46l-3.91,7.79h0ZM111.97,3.81c-.9,0-1.97-.1-1.97-1.29.02-1.1,1.2-1.14,1.98-1.14h3.03v2.44h-3.04ZM115.01,7.79h1.86V0h-5.19c-1.6,0-3.61.31-3.61,2.45,0,1.5.82,2.2,2.15,2.48l-2.43,2.86h2.23l2.22-2.74h2.78v2.74h0ZM126.59,7.9c1.47,0,2.13-.65,2.88-1.9l3.62-6h-1.97l-2.47,4.18-3.13-4.18h-2.24l4.36,5.68c-.52.86-1.31.93-2.21.7v1.39c.38.1.77.13,1.16.13h0ZM135.78,7.79h1.86V1.41h5.06v6.38h1.85V0h-8.77v7.79h0ZM150.01,3.84V1.32h2.7c.8,0,1.85.11,1.85,1.2,0,1.19-.96,1.31-1.88,1.31h-2.67ZM148.18,7.79h1.84v-2.63h2.96c1.77,0,3.5-.47,3.5-2.67,0-2.07-1.79-2.49-3.39-2.49h-4.91v7.79h0ZM161.04,4.59l1.67-3.34,1.68,3.34h-3.35ZM157.61,7.79h1.89l.94-1.89h4.55l.94,1.89h1.98l-3.92-7.79h-2.46l-3.91,7.79h0ZM172.43,3.24v-1.94h3.01c.63,0,1.63,0,1.63.91,0,.99-.87,1.02-1.61,1.02h-3.03ZM172.43,6.49v-2.17h3.08c.75,0,1.94-.03,1.94,1.06s-1.11,1.11-1.91,1.11h-3.11ZM170.61,7.79h5.37c1.5,0,3.39-.23,3.39-2.25,0-1.26-.9-1.75-1.96-1.86v-.03c.87-.15,1.51-.68,1.51-1.67,0-1.83-1.6-1.98-2.98-1.98h-5.33v7.79h0ZM185.48,3.85c.04-.81.04-1.63.04-2.44h3.78v6.38h1.86V0h-7.27v1.33c0,.91-.02,1.68-.05,2.3-.07,1.32-.23,2.92-1.97,2.64v1.57c2.61.52,3.5-1.72,3.61-3.99h0ZM194.79,7.79h8.03v-1.41h-6.23v-1.97h5.4v-1.18h-5.4v-1.81h6.1V0h-7.9v7.79h0ZM205.92,7.79h1.85v-3.34h5.44v3.34h1.86V0h-1.86v3.05h-5.44V0h-1.85v7.79h0ZM220.59,7.79l5.37-5.75v5.75h1.82V0h-1.89l-5.37,5.76V0h-1.82v7.79h1.89ZM238.07,7.79h1.86V0h-5.19c-1.6,0-3.61.31-3.61,2.45,0,1.5.82,2.2,2.15,2.48l-2.43,2.86h2.23l2.22-2.74h2.78v2.74h0Z"/>
  <path class="st1" d="M104.73,16.06v17.33h17.89v-17.33h9.68v44.46h-9.68v-17.74h-17.89v17.74h-9.68V16.06h9.68ZM84.64,16.06v8.95h-25.02v8.38h21.3v9.39l-21.3-.15v8.65h25.02v9.24s-34.7,0-34.7,0V16.06h34.7ZM178.11,16.06v8.95h-25.02v8.38h21.3v9.39l-21.3-.15v8.65h25.02v9.24s-34.7,0-34.7,0V16.06h34.7ZM38.39,16.06H0v44.46h14.33v7.72h9.68v-7.72h14.37v-17.24h-9.68v7.72H9.68v-25.7h19.02v7.72h9.68v-16.96h0ZM233.2,37.78l6.73,22.74h-10.21l-5.48-17.74h-6.06v17.74s-9.68,0-9.68,0v-17.74h-6.04l-5.49,17.74h-10.21l6.73-22.74-6.64-21.72h10.14l5.37,17.33h6.12v-17.33h9.68v17.33s6.14,0,6.14,0l5.37-17.33h10.13l-6.64,21.72h0Z"/>
</svg>